# xmcd
#
# Track frame offsets: 
#        150
#        5485
#        27728
#        48095
#        68701
#        99437
#        129380
#        147721
#        166687
#        192477
#
# Disc length: 2919 seconds
#
# Revision: 0
# Processed by: cddbd v1.5.2PL0 Copyright (c) Steve Scherf et al.
# Submitted via: ExactAudioCopyFreeDBPlugin 1.0
#
DISCID=870b650a
DTITLE=Soen - Cognitive
DYEAR=2012
DGENRE=Alternative
TTITLE0=Fraktal
TTITLE1=Fraccions
TTITLE2=Delenda
TTITLE3=Last Night
TTITLE4=Oscillation
TTITLE5=Canvas
TTITLE6=Ideate
TTITLE7=Purpose
TTITLE8=Slithering
TTITLE9=Savia
EXTD=
EXTT0=
EXTT1=
EXTT2=
EXTT3=
EXTT4=
EXTT5=
EXTT6=
EXTT7=
EXTT8=
EXTT9=
PLAYORDER=
